# xmcd
#
# Track frame offsets: 
#        150
#        12947
#        30338
#        46748
#        56799
#        77782
#        93893
#        104204
#        128272
#        141119
#
# Disc length: 2261 seconds
#
# Revision: 0
# Processed by: cddbd v1.5.1PL0 Copyright (c) Steve Scherf et al.
# Submitted via: ExactAudioCopy v0.95a5
#
DISCID=7608d30a
DTITLE=Blues Power - New Hat, Same Jacket
DYEAR=1995
DGENRE=Blues
TTITLE0=Do You Mind?
TTITLE1=Now I'm Ready
TTITLE2=One's To Many
TTITLE3=I've Got a New Hat
TTITLE4=These Cold Town Blues
TTITLE5=Call Me Baby
TTITLE6=The Midget
TTITLE7=Away From Here
TTITLE8=I'm Goin'Down
TTITLE9=200 Miles
EXTD=
EXTT0=
EXTT1=
EXTT2=
EXTT3=
EXTT4=
EXTT5=
EXTT6=
EXTT7=
EXTT8=
EXTT9=
PLAYORDER=
